# Blender v2.80 (sub 75) OBJ File: ''
# www.blender.org
mtllib extrusion_arrow.mtl
o Extrusion_Arrow
v -0.000026 -0.000000 0.232778
v -0.000026 0.033872 0.073386
v 0.099564 -0.000000 0.001031
v -0.000026 -0.000000 0.073386
v -0.000026 -0.033872 0.073386
v -0.099650 -0.000000 0.001031
vt 85.106796 -32.132702
vt 0.031997 9.396380
vt -61.449799 -32.132702
vt -0.065554 0.000000
vt 71.468903 0.000000
vt -0.065554 19.684999
vt -0.065554 -19.684999
vt -71.599998 0.000000
vt -61.513802 32.263802
vt -0.031997 -9.265280
vt 85.042801 32.263802
vt 85.106796 32.132702
vt -61.449799 32.132702
vt 0.031997 -9.396380
vt -92.600700 0.000000
vt 0.000000 -19.684999
vt 0.000000 0.000000
vt 0.000000 19.684999
vt 61.513802 -32.263802
vt 0.031997 9.265280
vt -85.042801 -32.263802
vn -0.4354 -0.8806 -0.1871
vn 0.5878 -0.0000 0.8090
vn -0.5876 -0.0000 0.8091
vn -0.4353 -0.8806 0.1871
vn -0.4354 0.8806 -0.1871
vn 1.0000 -0.0000 0.0000
vn 0.4353 -0.8806 -0.1871
usemtl arrow_material.002
s 1
f 1/1/1 2/2/1 3/3/1
f 4/4/2 3/5/2 2/6/2
f 3/5/2 4/4/2 5/7/2
f 4/4/3 6/8/3 5/7/3
f 6/8/3 4/4/3 2/6/3
f 6/9/4 5/10/4 1/11/4
f 1/12/5 3/13/5 5/14/5
f 1/15/6 5/16/6 4/17/6
f 1/15/6 4/17/6 2/18/6
f 6/19/7 2/20/7 1/21/7
